<?xml version="1.0" encoding="UTF-8" standalone="no"?>
<!-- Created with Inkscape (http://www.inkscape.org/) -->

<svg
   version="1.1"
   id="svg1"
   width="373.66666"
   height="373.66666"
   viewBox="0 0 373.66666 373.66666"
   sodipodi:docname="Gradient_Thermweave_Logo.svg"
   inkscape:version="1.4 (86a8ad7, 2024-10-11)"
   xmlns:inkscape="http://www.inkscape.org/namespaces/inkscape"
   xmlns:sodipodi="http://sodipodi.sourceforge.net/DTD/sodipodi-0.dtd"
   xmlns:xlink="http://www.w3.org/1999/xlink"
   xmlns="http://www.w3.org/2000/svg"
   xmlns:svg="http://www.w3.org/2000/svg">
  <defs
     id="defs1">
    <linearGradient
       id="linearGradient1"
       inkscape:collect="always">
      <stop
         style="stop-color:#14a7e3;stop-opacity:1;"
         offset="0"
         id="stop1" />
      <stop
         style="stop-color:#763eed;stop-opacity:1;"
         offset="1"
         id="stop2" />
    </linearGradient>
    <linearGradient
       inkscape:collect="always"
       xlink:href="#linearGradient1"
       id="linearGradient2"
       x1="114.95721"
       y1="115.67174"
       x2="267.70609"
       y2="268.42062"
       gradientUnits="userSpaceOnUse"
       gradientTransform="matrix(1.7266957,0,0,1.6933368,-143.87154,-138.69891)" />
  </defs>
  <sodipodi:namedview
     id="namedview1"
     pagecolor="#505050"
     bordercolor="#eeeeee"
     borderopacity="1"
     inkscape:showpageshadow="0"
     inkscape:pageopacity="0"
     inkscape:pagecheckerboard="0"
     inkscape:deskcolor="#505050"
     inkscape:zoom="1.5615522"
     inkscape:cx="146.64896"
     inkscape:cy="341.64724"
     inkscape:window-width="2560"
     inkscape:window-height="1369"
     inkscape:window-x="-8"
     inkscape:window-y="626"
     inkscape:window-maximized="1"
     inkscape:current-layer="g1" />
  <g
     inkscape:groupmode="layer"
     inkscape:label="Image"
     id="g1">
    <path
       style="fill:url(#linearGradient2);fill-opacity:1;stroke-width:1.70994"
       d="m 177.45388,372.50781 -5.75564,-0.49223 -6.04342,-0.91386 -6.04344,-0.91386 -4.89232,-1.05927 -4.89231,-1.05925 -3.45338,-1.12123 -3.45339,-1.12125 -6.61901,-2.51452 -6.61897,-2.51454 -7.48237,-3.83287 -7.48233,-3.83287 -7.19456,-4.77729 -7.19459,-4.77729 -3.16561,-2.38114 -3.165598,-2.38113 -5.605335,-5.20374 -5.605364,-5.20375 -4.524183,-5.17185 -4.524196,-5.17186 -3.461058,-4.79778 -3.461045,-4.79778 -3.474733,-5.92668 -3.474711,-5.92668 -3.1932,-7.33781 -3.193203,-7.33778 -1.492358,-5.08001 -1.492372,-5.08001 -1.730508,-9.03113 -1.730499,-9.03114 -0.329846,-9.87778 -0.329829,-9.87779 0.63462,-5.64448 0.634649,-5.64445 1.174533,-6.49112 1.174558,-6.49113 1.157487,-4.79778 1.157474,-4.79777 3.682978,-9.03115 3.68299,-9.03112 2.887516,-4.91561 2.887532,-4.9156 3.991099,-5.83371 3.991086,-5.83371 4.59774,-5.36265 4.597723,-5.36267 4.821872,-4.42687 4.821885,-4.42687 5.396114,-3.95369 5.396122,-3.95366 6.83446,-3.87712 6.83447,-3.87713 7.9142,-3.06397 7.91418,-3.06398 4.60455,-1.17963 4.6045,-1.17963 6.90681,-1.13918 6.90677,-1.13917 7.62622,-0.33996 7.62625,-0.33996 v 0.85396 0.85399 l -5.32397,1.84132 -5.324,1.84133 -5.75562,2.79644 -5.75565,2.79643 -3.45341,2.0496 -3.4534,2.0496 -4.6045,3.22422 -4.60455,3.22422 -5.26159,4.70012 -5.26165,4.70012 -3.80136,4.16019 -3.80141,4.16015 -4.17499,5.55978 -4.17499,5.55976 -2.3848,3.82676 -2.38484,3.82676 -3.240857,6.32031 -3.240859,6.3203 -2.55168,7.30563 -2.551666,7.30564 -1.181897,4.42516 -1.181899,4.42517 -1.233567,7.91339 -1.23357,7.91339 -0.03696,11.85337 -0.03696,11.85335 0.73885,5.36222 0.738864,5.36223 1.126386,5.92668 1.126347,5.92669 0.627421,1.97556 0.627406,1.97555 2.531877,7.17712 2.531889,7.17712 3.155288,6.51074 3.155307,6.51073 3.66904,5.82116 3.66907,5.82114 3.95665,5.04438 3.95667,5.04437 7.19889,7.26327 7.1989,7.26324 5.75567,4.63249 5.75566,4.6325 4.60451,3.15105 4.60453,3.15106 4.02896,2.31107 4.02896,2.31106 7.77013,3.87369 7.77011,3.87369 5.46791,2.09043 5.46784,2.09042 1.86035,0.931 1.86031,0.93102 -0.46548,0.4565 -0.46548,0.45651 -2.83377,0.21848 -2.83376,0.2185 z m 40.28959,-25.38446 -4.02896,-0.42078 -6.33124,-1.23457 -6.33118,-1.23456 -6.4376,-1.67016 -6.43764,-1.67016 -2.48366,-1.04772 -2.48364,-1.04773 -5.18008,-2.13488 -5.18007,-2.13489 -5.18012,-2.82737 -5.18008,-2.82736 -5.0268,-3.29629 -5.02679,-3.29626 -5.12468,-4.21659 -5.12463,-4.2166 -4.1566,-4.36487 -4.15664,-4.36487 -3.53444,-4.66077 -3.53449,-4.66078 -3.81448,-6.48668 -3.81451,-6.48668 -2.92586,-8.6261 -2.92584,-8.6261 -0.87054,-5.08001 -0.87054,-5.08001 -0.59089,-5.84538 -0.59092,-5.84537 v -8.00499 -8.005 l 0.82342,-6.46967 0.82342,-6.46968 0.95109,-4.49074 0.95105,-4.49076 1.24799,-3.04457 1.248,-3.04457 0.57478,-0.0846 0.57483,-0.0847 0.36346,9.59558 0.36342,9.59558 1.25316,7.33779 1.25316,7.33778 1.11612,3.98289 1.11611,3.98292 2.6305,6.45933 2.63048,6.45935 3.95459,6.77336 3.95459,6.77333 4.84858,5.92669 4.84857,5.92668 5.70789,5.37039 5.7079,5.37039 5.45055,4.00422 5.45063,4.00421 4.89233,2.71576 4.8923,2.71575 3.74116,1.81689 3.74117,1.81688 6.61899,2.56168 6.61901,2.5617 5.75566,1.41642 5.75565,1.41644 7.77014,1.46728 7.77011,1.46728 10.35178,0.64715 10.35179,0.64713 9.17334,-0.68404 9.1733,-0.68404 2.34638,-0.5192 2.34638,-0.5192 8.03655,-1.51302 8.03647,-1.51302 4.91372,-1.551 4.9137,-1.55101 5.46787,-1.96399 5.46787,-1.96396 7.48233,-3.5796 7.48234,-3.5796 5.18011,-3.08048 5.18008,-3.08048 3.66421,-2.4518 3.66421,-2.45178 h 0.50864 0.50865 v 0.8985 0.8985 l -1.29501,1.658 -1.29502,1.65798 -2.81477,3.51131 -2.81473,3.51128 -5.53097,5.54724 -5.53095,5.54722 -5.18008,4.37064 -5.18009,4.37064 -5.75565,3.95302 -5.75568,3.95301 -5.18014,2.91012 -5.18016,2.91015 -6.61889,2.87054 -6.61894,2.87054 -3.45341,1.08912 -3.45337,1.08913 -8.8714,1.97556 -8.87138,1.97554 -6.09331,0.56668 -6.09332,0.56667 -8.3457,-0.0761 -8.34568,-0.0762 z m 11.79906,-55.12477 -2.01445,-0.20249 -6.04343,-0.87686 -6.04345,-0.87685 -4.38384,-1.0809 -4.38378,-1.08088 -5.40082,-2.01028 -5.40078,-2.01026 -2.87783,-1.17667 -2.87781,-1.17665 -5.18008,-2.83479 -5.1801,-2.83478 -2.73645,-1.93763 -2.73649,-1.93761 0.35848,-0.56881 0.35847,-0.56882 1.51464,0.31176 1.51466,0.31175 6.33123,1.40865 6.3312,1.40866 8.49484,0.87384 8.49482,0.87386 h 5.89782 5.89781 l 7.46974,-0.8569 7.46977,-0.8569 4.84709,-1.12895 4.84713,-1.12894 6.96104,-2.30564 6.96107,-2.30566 5.69579,-2.85875 5.6958,-2.85876 4.95219,-3.19842 4.95214,-3.19844 4.31673,-3.38906 4.31673,-3.38907 4.60983,-4.50777 4.60986,-4.50777 4.5992,-5.99463 4.59921,-5.99463 2.71133,-4.2224 2.7113,-4.22242 3.12368,-6.39194 3.12374,-6.39198 1.73169,-5.36222 1.73175,-5.36223 1.2322,-4.34473 1.23219,-4.34471 0.85685,-4.68641 0.85684,-4.68643 0.35051,-9.31333 0.3505,-9.31336 -0.69627,-7.05557 -0.69628,-7.05558 -0.83197,-3.90084 -0.83201,-3.90086 -1.19012,-4.00139 -1.19011,-4.00137 -1.76299,-5.36224 -1.76295,-5.36222 -3.56172,-7.3378 -3.56172,-7.33779 -3.32605,-5.350595 -3.32601,-5.350609 -4.39284,-5.639067 -4.39283,-5.639067 -5.75566,-5.884785 -5.75566,-5.884773 -5.46787,-4.600129 -5.46786,-4.600129 -4.31674,-3.146254 -4.31675,-3.14628 -7.19457,-4.23347 -7.19456,-4.233483 -5.24081,-2.578224 -5.24079,-2.578199 -7.9972,-3.085908 -7.99721,-3.085907 -9.20903,-2.549091 -9.20905,-2.549117 -6.04343,-1.138798 -6.04345,-1.138811 -8.34567,-0.998131 -8.34572,-0.998143 -19.56919,-0.02404 -19.56924,-0.02404 -8.3457,1.022232 -8.34568,1.022233 -5.96536,1.126877 -5.96533,1.126876 -5.54598,1.40503 -5.545941,1.405043 -4.465061,1.191884 -4.465049,1.191895 -0.340981,-0.334419 -0.34101,-0.334395 0.317011,-0.503023 0.316997,-0.503011 5.064609,-3.385142 5.064609,-3.385142 6.906766,-3.741494 6.9068,-3.741491 6.33123,-2.77225 6.3312,-2.772252 8.749,-2.898809 8.74895,-2.8988103 5.64016,-1.3916843 5.64014,-1.3916816 9.78463,-1.6902705 9.78463,-1.6902692 6.33119,-0.58779293 L 185.5118,0 l 9.49685,0.00443822 9.49681,0.00443822 6.61898,0.55081892 6.61903,0.55081764 3.45338,0.5764214 3.4534,0.5764225 6.61902,1.1608214 6.61898,1.1608191 5.46787,1.3618914 5.46784,1.3618914 8.63352,3.0624398 8.63344,3.062439 6.23001,2.887021 6.22998,2.887022 4.99355,2.873397 4.99352,2.873394 6.04343,3.999034 6.04347,3.999021 6.33119,4.813645 6.33124,4.813632 8.50601,8.164576 8.50604,8.1646 4.62966,5.723825 4.62966,5.723837 3.66289,5.038033 3.6629,5.03801 4.53847,7.620018 4.5384,7.620018 2.61126,5.362238 2.61127,5.36224 1.83708,5.08002 1.83708,5.08001 0.79046,1.76297 0.79048,1.76301 1.7718,6.98589 1.77179,6.98591 1.19696,7.3378 1.19699,7.33779 0.31175,10.44224 0.31174,10.44225 -1.24532,8.46667 -1.24527,8.4667 -1.47212,6.49111 -1.47208,6.49111 -1.9845,5.08002 -1.98453,5.08002 -1.17757,2.82223 -1.17755,2.82223 -3.19841,5.92668 -3.19839,5.92667 -3.93399,5.7533 -3.934,5.75328 -4.44489,5.2534 -4.44493,5.2534 -5.79125,5.64446 -5.79128,5.64445 -4.59383,3.62254 -4.59383,3.62258 -6.72359,4.36376 -6.72357,4.36378 -7.66555,3.68962 -7.66557,3.6896 -6.90677,2.28508 -6.90681,2.28506 -5.00682,1.12612 -5.00688,1.12608 -6.67783,0.85848 -6.67778,0.85848 -9.89907,-0.0903 -9.89901,-0.0902 z M 13.794883,262.60723 12.140918,259.36169 8.9258087,249.7661 5.7107007,240.17052 4.2616756,233.6794 2.8126325,227.18828 1.9112279,220.41494 1.0098231,213.64159 0.50490337,206.2264 0,198.81119 l 0.52981962,-6.69593 0.52983598,-6.69594 0.5876989,-4.51557 0.5876801,-4.51556 1.1744124,-5.92668 1.1743948,-5.92667 0.8534364,-3.38669 0.8534206,-3.38667 2.9086531,-8.18445 2.9086711,-8.18447 3.876657,-7.90223 3.876672,-7.90225 3.311338,-5.36222 3.311358,-5.36223 3.212033,-4.23334 3.212056,-4.23335 5.044195,-5.70452 5.04422,-5.704533 4.779845,-4.207138 4.779847,-4.207149 4.457229,-3.527448 4.457215,-3.527436 5.327388,-3.345099 5.327372,-3.345125 5.913547,-3.163686 5.913509,-3.163699 7.60056,-3.082295 7.600547,-3.082295 3.465089,-1.124374 3.4651,-1.124361 8.84796,-2.254678 8.84794,-2.254665 6.40453,-1.058652 6.40453,-1.058663 8.63348,-0.696887 8.6335,-0.696911 10.64793,0.356007 10.64795,0.356006 7.04491,0.863098 7.04489,0.863086 3.89082,0.806105 3.89088,0.806079 8.92125,2.515189 8.92126,2.515201 4.02896,1.820522 4.02895,1.82052 4.02897,1.830434 4.02895,1.830433 6.06458,3.628652 6.06457,3.628664 4.81699,3.596032 4.81703,3.596031 6.03233,5.693214 6.03236,5.693201 4.17016,5.080012 4.17017,5.080008 3.59888,5.64447 3.59888,5.64445 3.07335,6.69698 3.07337,6.697 1.46493,4.70997 1.46493,4.71001 1.39929,6.73782 1.3993,6.73782 0.38044,7.81969 0.38043,7.8197 -0.60369,4.16956 -0.60368,4.1696 -0.59042,0.579 -0.59044,0.579 -0.6565,-1.64413 -0.65653,-1.64414 -1.98814,-6.77336 -1.98815,-6.77334 -3.43512,-7.01109 -3.4351,-7.01111 -3.51269,-5.12448 -3.5127,-5.12447 -4.04906,-4.69372 -4.04902,-4.69376 -4.65406,-4.25244 -4.6541,-4.25241 -5.18009,-3.78861 -5.18008,-3.78861 -5.94163,-3.54558 -5.94167,-3.54559 -6.43301,-2.961171 -6.43298,-2.961181 -5.46786,-1.765623 -5.46787,-1.765623 -6.51727,-1.720451 -6.51727,-1.72044 -6.14517,-0.973967 -6.14519,-0.973955 -15.25245,-0.0037 -15.25246,-0.0037 -4.31675,0.726488 -4.31677,0.7265 -6.90677,1.634189 -6.90676,1.63419 -4.83122,1.49843 -4.83118,1.498429 -7.6612,3.290288 -7.6612,3.290307 -5.63791,3.11153 -5.637907,3.11151 -5.258976,3.56689 -5.258986,3.56688 -5.782515,4.68611 -5.782494,4.68611 -6.763578,6.87975 -6.763565,6.87974 -4.700407,6.21418 -4.700396,6.21417 -3.24629,4.95125 -3.246274,4.95125 -3.689039,6.9021 -3.689049,6.90212 -3.46859,8.46668 -3.468573,8.46668 -2.410487,8.74891 -2.410493,8.7489 -1.031672,4.79779 -1.031703,4.79779 -1.198261,9.59558 -1.198256,9.59556 -0.581394,10.08154 -0.581398,10.08152 v 4.45293 4.45296 H 16.30393 15.44885 Z"
       id="path1" />
  </g>
</svg>
